<svg width="25" height="25" viewBox="0 0 25 25" fill="none" xmlns="http://www.w3.org/2000/svg">
<path d="M21.9998 16.4165C21.9467 16.3966 21.895 16.3727 21.8452 16.3453C19.7006 14.9662 17.5567 13.5862 15.4134 12.2051C15.3699 12.1772 15.3283 12.1463 15.2617 12.1005L21.9998 7.58563V16.4165Z" fill="white"/>
<path d="M12.0065 5C14.8907 5 17.7745 5 20.6579 5C21.2667 5 21.7281 5.32085 21.9087 5.85893C21.9576 6.00142 21.9522 6.09658 21.801 6.19722C19.0918 8.00575 16.3857 9.81893 13.683 11.6368C13.1668 11.983 12.6485 12.3263 12.1362 12.678C12.0349 12.7478 11.9654 12.7488 11.8622 12.678C8.63227 10.5078 5.40023 8.34022 2.16607 6.1753C2.05988 6.10405 2.03786 6.04028 2.07065 5.91921C2.13871 5.67557 2.27715 5.4584 2.46799 5.2959C2.65883 5.1334 2.89326 5.03308 3.14082 5.00797C3.23134 5 3.32138 5 3.41386 5H12.0065Z" fill="white"/>
<path d="M21.9529 17.9328C21.8022 18.6238 21.3491 19 20.6748 19C14.8925 19 9.11008 19 3.32747 19C2.73049 19 2.27688 18.6826 2.09093 18.153C2.03808 18.0035 2.05032 17.9144 2.20152 17.8182C3.69594 16.8656 5.18645 15.9031 6.67451 14.9435C7.69134 14.2883 8.71013 13.6352 9.72354 12.974C9.84832 12.8923 9.92906 12.8983 10.048 12.981C10.5373 13.3203 11.0394 13.6407 11.5267 13.9829C11.8458 14.2066 12.1418 14.2116 12.4628 13.9869C12.9668 13.6347 13.4841 13.3014 13.9915 12.9541C14.0806 12.8928 14.1412 12.8923 14.2327 12.9541C16.7776 14.5932 19.3223 16.232 21.8668 17.8705C21.8957 17.888 21.9206 17.9089 21.9529 17.9328Z" fill="white"/>
<path d="M2 16.4444V7.58563L8.73909 12.106L2 16.4444Z" fill="white"/>
</svg>
