<svg width="25" height="25" viewBox="0 0 25 25" fill="none" xmlns="http://www.w3.org/2000/svg">
<path d="M21.1688 13.8128C21.9634 14.7311 21.6654 16.2649 20.3371 16.7033C20.5304 18.0189 20.3058 18.4675 19.2084 19.0248C19.2182 19.3672 19.2803 19.6955 19.2265 20.0033C19.0856 20.8095 18.3552 21.4299 17.5053 21.4358C15.8531 21.448 14.199 21.4505 12.5478 21.3962C11.2508 21.3536 10.0164 20.9632 8.80011 20.5312C8.75608 20.5155 8.72526 20.4455 8.70226 20.3947C8.69412 20.3565 8.69312 20.3172 8.69933 20.2787C8.69933 17.4867 8.69819 14.6946 8.69591 11.9023C8.69591 11.7462 8.737 11.6625 8.88475 11.5931C9.46843 11.3191 10.0277 11.006 10.515 10.5715C11.08 10.0691 11.3907 9.41543 11.6358 8.7251C11.9937 7.72514 12.1918 6.67507 12.2229 5.61347C12.2322 5.28861 12.426 5.04497 12.7308 5.01855C13.5551 4.94614 14.3301 5.07041 14.9632 5.66534C15.45 6.12327 15.7343 6.6864 15.7347 7.35667C15.7347 8.38066 15.6212 9.39488 15.3433 10.3851C15.3003 10.5402 15.2367 10.6894 15.1692 10.8783H15.4065C16.7992 10.8783 18.1921 10.8783 19.5851 10.8783C20.1595 10.8783 20.6757 11.0251 21.0969 11.4375C21.3892 11.7209 21.5695 12.1001 21.6047 12.5057C21.6399 12.9113 21.5277 13.3159 21.2887 13.6455C21.2486 13.6988 21.2114 13.7521 21.1688 13.8128Z" fill="#E31E25"/>
<path d="M4.00078 16.1799V11.6504C4.00078 11.0799 4.19648 10.8832 4.75863 10.8828C5.44358 10.8828 6.12511 10.8828 6.80859 10.8828C7.30664 10.8828 7.52386 11.1019 7.52386 11.5976C7.52386 14.6436 7.52386 17.6895 7.52386 20.7353C7.52386 21.2323 7.30518 21.451 6.81153 21.4515C6.10212 21.4515 5.3927 21.4515 4.68329 21.4515C4.22487 21.4515 4.00225 21.2309 4.00176 20.7666C3.9998 19.2381 3.99948 17.7092 4.00078 16.1799Z" fill="#E31E25"/>
</svg>
