<svg width="25" height="25" viewBox="0 0 25 25" fill="none" xmlns="http://www.w3.org/2000/svg">
<g clip-path="url(#clip0_115_25)">
<path d="M18.3484 22C17.5509 21.9257 16.7661 21.7508 16.0127 21.4795C13.8771 20.7342 12.0007 19.5436 10.2687 18.112C7.86616 16.1302 5.8667 13.8109 4.39637 11.0552C3.75735 9.85564 3.28018 8.59703 3.03592 7.25316C2.9559 6.81255 3.00009 6.43336 3.26525 6.05417C4.1754 4.75203 5.16797 3.52204 6.33969 2.44289C6.46661 2.32813 6.60218 2.22328 6.7452 2.12928C7.0241 1.94385 7.21879 1.95578 7.47201 2.17876C7.59129 2.27917 7.69833 2.39323 7.79092 2.51861C8.70405 3.80524 9.5509 5.13361 10.2263 6.56095C10.5924 7.33186 10.556 7.46362 9.9146 8.0336C9.49177 8.40862 9.07074 8.78603 8.64433 9.15687C8.52489 9.25942 8.51175 9.36078 8.55594 9.50745C9.15315 11.4863 10.2675 13.1247 11.8442 14.4483C12.9263 15.3569 14.1351 16.0444 15.5081 16.4236C15.6424 16.4611 15.729 16.4456 15.8198 16.3425C16.1781 15.9347 16.5442 15.534 16.9008 15.125C17.5201 14.4149 17.6568 14.3738 18.4989 14.7804C19.8753 15.4561 21.1907 16.2492 22.4303 17.1509C23.147 17.6637 23.1727 17.9612 22.5808 18.6057C21.4484 19.8303 20.164 20.9054 18.7587 21.805C18.6273 21.8807 18.4901 21.9459 18.3484 22Z" fill="white"/>
</g>
<defs>
<clipPath id="clip0_115_25">
<rect width="20" height="20" fill="white" transform="translate(3 2)"/>
</clipPath>
</defs>
</svg>
