<svg width="25" height="25" viewBox="0 0 25 25" fill="none" xmlns="http://www.w3.org/2000/svg">
<path d="M21 11.204C20.9887 12.8499 20.5257 14.3706 19.7687 15.806C18.5782 18.0666 16.9014 19.9127 14.9959 21.5483C14.4576 22.0103 13.8874 22.4338 13.3247 22.8656C13.0885 23.0466 12.8949 23.0408 12.6561 22.8656C10.3496 21.1851 8.31878 19.2229 6.77044 16.7775C5.9477 15.4775 5.30731 14.0889 5.09928 12.5425C4.63935 9.12439 5.77539 6.35113 8.54999 4.4133C13.1173 1.22167 19.3746 3.70106 20.7406 9.1892C20.9018 9.84871 20.9888 10.5249 21 11.2047V11.204ZM16.4978 11.2156C16.5001 10.5046 16.2963 9.80901 15.9124 9.2167C15.5284 8.62439 14.9815 8.16203 14.3408 7.88812C13.7002 7.61421 12.9946 7.54107 12.3133 7.67794C11.632 7.81481 11.0057 8.15556 10.5136 8.65705C10.0215 9.15854 9.68578 9.79825 9.54884 10.4952C9.41189 11.1922 9.47991 11.9151 9.7443 12.5724C10.0087 13.2298 10.4576 13.7921 11.0341 14.1881C11.6107 14.5842 12.289 14.7962 12.9832 14.7973C13.9123 14.7968 14.8034 14.4199 15.4619 13.7488C16.1205 13.0777 16.4929 12.167 16.4978 11.2156Z" fill="#E31E25"/>
</svg>
