<svg width="25" height="25" viewBox="0 0 25 25" fill="none" xmlns="http://www.w3.org/2000/svg">
<path d="M17.7873 15.8806C17.1949 15.2957 16.4552 15.2957 15.8665 15.8806C15.4174 16.3259 14.9683 16.7712 14.5268 17.2241C14.4061 17.3486 14.3042 17.375 14.157 17.292C13.8664 17.1335 13.557 17.0052 13.2777 16.8316C11.9758 16.0127 10.8851 14.9598 9.91906 13.7749C9.4398 13.1861 9.01336 12.5559 8.71524 11.8465C8.65486 11.7031 8.66618 11.6087 8.78316 11.4917C9.23224 11.0577 9.67 10.6124 10.1115 10.1671C10.7266 9.54828 10.7266 8.82373 10.1078 8.20106C9.75679 7.84633 9.40583 7.49913 9.05487 7.1444C8.69259 6.78212 8.33409 6.41607 7.96803 6.05756C7.37555 5.48018 6.6359 5.48019 6.04719 6.06134C5.59434 6.50665 5.16036 6.96326 4.69997 7.40102C4.27353 7.80481 4.05843 8.29917 4.01314 8.87655C3.94144 9.81622 4.17164 10.703 4.49618 11.5672C5.16036 13.356 6.17173 14.9447 7.3982 16.4014C9.05487 18.3713 11.0323 19.9298 13.3456 21.0544C14.3872 21.5601 15.4665 21.9488 16.6401 22.0129C17.4477 22.0582 18.1496 21.8545 18.7119 21.2242C19.0968 20.794 19.5308 20.4016 19.9384 19.9902C20.5422 19.3789 20.5459 18.6392 19.9459 18.0354C19.2289 17.3146 18.5081 16.5976 17.7873 15.8806Z" fill="#E31E25"/>
<path d="M17.7174 12.7603H17.7182C18.1371 12.6886 18.3993 12.2656 18.2752 11.8591C17.9778 10.887 17.4472 10.0062 16.7193 9.27529C15.9404 8.49639 14.9962 7.94882 13.955 7.66578C13.5437 7.55408 13.127 7.82617 13.0678 8.24845L13.0674 8.25109C13.018 8.60318 13.2384 8.93641 13.5814 9.03C14.3878 9.24925 15.1199 9.67229 15.723 10.2753C16.2849 10.8372 16.6928 11.5168 16.9227 12.2667C17.0272 12.6078 17.3657 12.8203 17.7174 12.7603Z" fill="#E31E25"/>
<path d="M19.2438 6.82043C17.8158 5.39244 16.052 4.43202 14.1021 4.01578C13.7013 3.93011 13.3122 4.20258 13.2552 4.60826L13.2549 4.61052C13.2039 4.97469 13.4405 5.32036 13.8002 5.39735C15.4863 5.75774 17.0131 6.58947 18.2475 7.82047C19.4098 8.98279 20.2193 10.4153 20.6088 11.9939C20.6971 12.3516 21.0484 12.5795 21.4118 12.5177C21.8156 12.4486 22.0775 12.0516 21.979 11.6542C21.5258 9.82584 20.5888 8.16879 19.2438 6.82043Z" fill="#E31E25"/>
</svg>
